<svg width="60" height="60" viewBox="0 0 60 60" fill="none" xmlns="http://www.w3.org/2000/svg">
<g clip-path="url(#clip0_223_1096)">
<mask id="mask0_223_1096" style="mask-type:luminance" maskUnits="userSpaceOnUse" x="0" y="7" width="60" height="46">
<path d="M0 7.5H60V52.5H0V7.5Z" fill="white"/>
</mask>
<g mask="url(#mask0_223_1096)">
<path d="M47.4107 8.70536C48.0857 9.17357 48.6172 9.77464 49.1464 10.3982C49.4914 10.7968 49.8482 11.1825 50.2072 11.5682C50.7857 12.1929 51.3589 12.8218 51.9268 13.4561C52.2718 13.8386 52.62 14.2189 52.9682 14.5982C53.7182 15.4146 54.4607 16.2396 55.2022 17.0657C55.8375 17.7729 55.8375 17.7729 56.4814 18.4746C59.1943 21.3954 59.1943 21.3954 59.2629 23.2361C59.1954 25.0029 58.3114 25.9757 57.0718 27.1489C55.8739 28.2311 54.795 28.7432 53.1718 28.68L52.9018 28.6607L52.7839 28.965L52.6168 29.3807C52.5643 29.5146 52.5118 29.6486 52.4561 29.7857C51.9225 30.9321 51.2882 31.8214 50.3636 32.6818L49.7529 33.2711C49.4347 33.5754 49.1164 33.8775 48.7961 34.1775C48.4854 34.4721 48.1768 34.7689 47.8693 35.0679L47.5789 35.3336C46.9554 35.9443 46.7497 36.4243 46.6554 37.2932C46.5332 38.1589 45.99 39.0257 45.3011 39.555C44.5039 40.0907 43.6993 40.3736 42.7232 40.3125L42.7564 40.6982C42.7447 41.9004 42.1029 42.7929 41.2993 43.6339C40.2932 44.5671 39.3311 44.8982 37.9672 44.8886C37.6339 44.8661 37.6339 44.8661 37.2322 44.7321L37.215 45.1179C37.0672 46.1325 36.3932 47.04 35.5939 47.6539C34.6661 48.2754 33.5282 48.4682 32.4289 48.2839L32.1429 48.2143L32.1257 48.6664C32.0068 49.5686 31.5622 50.3057 30.8872 50.9089C29.7364 51.7521 28.6586 51.9857 27.2572 51.7821C25.665 51.4071 24.5422 50.0089 23.4375 48.885C23.0518 48.4939 22.6447 48.1329 22.2268 47.7771C21.7811 47.3807 21.3697 46.9511 20.9518 46.5268C20.6732 46.2536 20.3936 45.9975 20.0979 45.7446C19.5873 45.2965 19.0962 44.8268 18.6257 44.3368C18.1939 43.9018 17.7472 43.4968 17.28 43.0993C16.8429 42.7093 16.4379 42.2893 16.0297 41.8693C15.7447 41.5907 15.4575 41.3304 15.1575 41.07C11.46 37.86 9.33965 34.02 8.03573 29.3304V29.0625L7.65858 29.1964C6.6193 29.4857 5.55858 29.4257 4.55787 29.025C3.09215 28.1925 1.47965 26.7643 0.896797 25.1529C0.639654 24.1189 0.671797 23.025 1.11965 22.0511C1.57073 21.3225 2.15358 20.7 2.7268 20.0668C3.08144 19.6704 3.42323 19.2632 3.76608 18.8593C4.25144 18.2914 4.74322 17.7343 5.24787 17.1846C5.67858 16.7164 6.08894 16.2396 6.48751 15.7446C6.97865 15.1426 7.49112 14.5583 8.02394 13.9929C8.52351 13.444 9.0038 12.878 9.46394 12.2957C9.92894 11.7364 10.4218 11.2082 10.9179 10.6779C11.25 10.3211 11.25 10.3211 11.5286 9.95357C11.7431 9.68357 12.0062 9.45609 12.3043 9.28286L12.5636 9.12214C13.635 8.57893 14.8725 8.52 16.0297 8.83928C16.7775 9.13178 17.3497 9.65357 17.9464 10.1786L18.3354 10.5C19.3393 11.3561 20.0164 12.1993 20.2232 13.5268C20.2393 13.8857 20.2297 14.2393 20.2232 14.5982C21.375 15.1896 22.5622 15.6771 23.7622 16.1625C24.0257 16.2696 24.2882 16.3768 24.5507 16.4871C24.9332 16.6479 25.3168 16.8032 25.7004 16.9586C25.8161 17.0068 25.9318 17.0571 26.0518 17.1086C26.9261 17.4514 27.5014 17.4075 28.3929 17.1429L28.8289 17.0229C29.3347 16.8814 29.8393 16.7336 30.3429 16.5836L30.9054 16.4186L32.3797 15.9836C33.3487 15.6974 34.318 15.4121 35.2875 15.1275C36.6904 14.7128 38.0976 14.3132 39.5089 13.9286L39.5464 13.5643C39.7189 11.9904 40.3414 10.9446 41.5179 9.91071L41.8532 9.60428C43.5182 8.14928 45.375 7.65428 47.4107 8.70536Z" fill="#010101"/>
<path d="M19.2855 16.4732C21.486 17.2876 23.6738 18.1359 25.848 19.0178C25.7768 19.5763 25.6162 20.1197 25.3723 20.6271L25.158 21.0964L25.0434 21.3428C24.8452 21.7746 24.6491 22.2064 24.4541 22.6393L24.332 22.9071C23.9184 23.8189 23.5252 24.7403 23.1363 25.6639L22.9466 26.1107C22.3809 27.4586 22.0509 28.755 22.5834 30.1928C23.0977 31.2857 23.807 31.9253 24.9105 32.4107C25.9895 32.7536 27.1123 32.5875 28.157 32.2178C29.237 31.6082 29.8713 30.7436 30.5023 29.6989L30.7434 29.3121C31.1441 28.6682 31.5363 28.02 31.9273 27.3707L32.1448 27.0171C32.2798 26.7943 32.4127 26.5714 32.5455 26.3475C32.987 25.6243 32.987 25.6243 33.4284 25.4153C33.8591 25.4571 33.9748 25.5932 34.2609 25.9146C34.6027 26.2843 34.9413 26.6346 35.3238 26.9614C35.7845 27.3578 36.2334 27.765 36.6791 28.1753C37.1741 28.6296 37.6691 29.0828 38.1695 29.5307C38.6698 29.9807 39.1659 30.4328 39.6588 30.8871C40.0911 31.2872 40.5294 31.6808 40.9734 32.0678C41.5305 32.55 42.0684 33.0493 42.6063 33.5507C43.0445 33.9578 43.4902 34.3511 43.9455 34.7378C44.3848 35.1321 44.6988 35.4428 44.8659 36.0268C44.9002 36.6653 44.8252 37.1828 44.4223 37.6928C43.9348 38.1568 43.5652 38.3464 42.8902 38.3786C42.3673 38.3571 42.0984 38.295 41.7148 37.9371C41.6238 37.8514 41.5327 37.7668 41.4373 37.68C40.7519 37.0094 40.0726 36.3326 39.3995 35.6496L38.5016 34.7432L38.2959 34.5343C38.0142 34.2411 37.7025 33.9782 37.3659 33.75C36.887 33.7607 36.887 33.7607 36.4284 33.8839C36.1284 34.2557 36.1284 34.2557 36.152 34.65C36.3588 35.2864 36.7584 35.6282 37.2352 36.0814L37.5213 36.3621C37.8223 36.6557 38.1255 36.9482 38.4288 37.2407C38.732 37.5332 39.0341 37.8268 39.3352 38.1203C39.5227 38.3036 39.7102 38.4846 39.8998 38.6668C40.4238 39.1768 40.7998 39.5807 40.878 40.3361C40.8095 41.2436 40.4238 41.7075 39.7766 42.3214L39.4584 42.6482C38.9634 42.9428 38.477 43.0639 37.9016 42.9911C37.1088 42.6043 36.5709 42.1028 35.9677 41.4653L35.4041 40.8846C35.1112 40.5814 34.8194 40.2771 34.5288 39.9718C34.2458 39.6755 33.9612 39.3809 33.6748 39.0878L33.4145 38.8093C32.9827 38.3711 32.7898 38.1857 32.1641 38.0978C31.7377 38.1332 31.7377 38.1332 31.473 38.3957C31.2973 38.8018 31.3348 38.9561 31.473 39.375C31.698 39.6428 31.9177 39.8764 32.1695 40.1143L32.3827 40.3232C32.8322 40.7544 33.2793 41.1879 33.7241 41.6239L34.1398 42.0257C34.6541 42.525 35.1545 43.0403 35.2938 43.7614C35.2841 44.6025 35.2273 45.1414 34.6873 45.8036C34.0552 46.2643 33.4627 46.4411 32.6784 46.3393C31.9648 46.0511 31.518 45.63 30.9952 45.0868L30.7498 44.8382C30.4927 44.5778 30.2377 44.3164 29.9827 44.0539C29.7266 43.7914 29.4705 43.5289 29.2134 43.2686C29.0538 43.106 28.8948 42.9428 28.7366 42.7789C28.2309 42.2507 28.2309 42.2507 27.5891 41.9196C27.1659 41.94 27.1659 41.94 26.7855 42.0536C26.583 42.4575 26.5841 42.6728 26.6516 43.125C27.348 44.1 28.3059 44.9164 29.1652 45.7436C29.3643 45.938 29.5636 46.1323 29.763 46.3264C30.2163 46.8643 30.3223 47.3828 30.3009 48.0825C30.2259 48.6889 29.9688 49.0596 29.523 49.4614C28.8588 49.9221 28.248 49.9007 27.4552 49.8214C26.8466 49.5289 26.4245 49.0746 25.9605 48.5946C25.7195 48.3536 25.4709 48.1339 25.2116 47.9132C24.7599 47.518 24.3245 47.1044 23.9066 46.6736C23.4116 46.1732 22.9048 45.6986 22.3691 45.2421C21.9213 44.8425 21.5066 44.4096 21.0855 43.9832C20.8059 43.7068 20.522 43.4475 20.223 43.1914C19.6766 42.7253 19.1795 42.2164 18.6748 41.7064C18.3972 41.4323 18.1095 41.1686 17.8123 40.9157C17.2659 40.4486 16.7688 39.9407 16.2641 39.4296C15.9823 39.1511 15.6963 38.8939 15.393 38.6389C14.2145 37.62 13.2834 36.4018 12.4552 35.0893L12.168 34.6414C11.3527 33.2796 10.8652 31.7914 10.3627 30.2925L10.2502 29.9625C10.145 29.6484 10.0414 29.3337 9.93947 29.0186L9.84197 28.7293C9.5784 27.9 9.5784 27.9 9.77662 27.4553C10.4055 26.5661 11.1673 25.7711 11.9077 24.975C12.3084 24.5421 12.6877 24.0986 13.0573 23.6389C13.5448 23.0336 14.058 22.4625 14.5863 21.8946C14.9848 21.4623 15.3682 21.0163 15.7359 20.5575C16.2223 19.9543 16.7345 19.3843 17.2627 18.8175C17.7941 18.2421 18.2902 17.6443 18.7798 17.0325C19.0177 16.7411 19.0177 16.7411 19.2855 16.4732Z" fill="#F8C28E"/>
<path d="M40.4464 15.9375C40.6639 16.1197 40.6639 16.1197 40.875 16.3522L41.1128 16.6093L41.3592 16.8836L41.6142 17.1622C42.0878 17.6818 42.5549 18.2068 43.0135 18.7393C43.351 19.1229 43.6992 19.4968 44.0453 19.8718C44.7278 20.6079 45.4017 21.3504 46.0714 22.0982C46.7142 22.8161 47.3614 23.5307 48.0139 24.2411C48.571 24.8486 49.1303 25.4572 49.6757 26.0765C49.9499 26.385 49.95 26.385 50.2435 26.6582C50.8628 27.2711 50.8628 27.2711 50.9442 27.7725C50.8542 29.4611 49.7357 30.6011 48.616 31.7411L48.3503 32.0186C47.8724 32.5082 47.3657 32.9582 46.8482 33.405C46.5771 33.6429 46.321 33.8915 46.0714 34.1518C45.6042 33.9525 45.316 33.6879 44.9667 33.3236C44.5193 32.8649 44.0517 32.4262 43.5653 32.009C43.1735 31.6631 42.7867 31.3116 42.4049 30.9547C41.6689 30.2722 40.9264 29.5982 40.1785 28.9286C39.3916 28.2246 38.6098 27.515 37.8332 26.7997C37.504 26.4959 37.1704 26.1969 36.8324 25.9029L36.4617 25.5804L36.1296 25.2954C35.8928 25.0447 35.8928 25.0447 35.8928 24.6429L36.1221 24.5829C36.4242 24.4907 36.69 24.3965 36.9642 24.2411C37.1528 23.8554 37.1528 23.8554 37.0982 23.4375C36.945 23.1343 36.945 23.1343 36.6964 22.9018C36.4103 22.8525 36.4103 22.8525 36.0964 22.9125L35.7364 22.964C35.0967 23.085 34.47 23.234 33.8421 23.4032L33.4521 23.5018C32.0442 23.879 31.5439 24.7586 30.7864 25.9404L30.5196 26.3518C29.9056 27.2993 29.3161 28.2625 28.7517 29.2404C28.3253 29.9615 27.8775 30.5293 27.0535 30.8036C26.1 30.8957 25.4035 30.8743 24.6428 30.2679C24.136 29.5875 23.971 28.9715 23.9732 28.125C24.0803 27.7479 24.1875 27.4457 24.3525 27.0965L24.48 26.8072C24.5721 26.5972 24.6653 26.3893 24.7607 26.1804C24.9171 25.8343 25.0692 25.4872 25.2214 25.1379C25.4935 24.5111 25.7689 23.8843 26.0464 23.2597L26.5607 22.0961L26.8928 21.3472L27.046 21L27.1907 20.6732L27.3171 20.3893L27.4553 20.0893C27.5089 19.9511 27.5625 19.814 27.616 19.6715C27.9342 19.1615 28.1764 19.109 28.7496 18.9472L29.0228 18.8668C29.3217 18.78 29.6207 18.6975 29.9207 18.615L30.5507 18.435C31.1046 18.276 31.6592 18.1196 32.2146 17.9657C32.7696 17.8104 33.3246 17.6518 33.8796 17.4922C34.7957 17.23 35.7129 16.9714 36.631 16.7165C37.2538 16.5445 37.8749 16.3666 38.4942 16.1829C38.7053 16.1218 38.9153 16.0597 39.1253 15.9965C39.6203 15.855 39.9567 15.7715 40.4464 15.9375Z" fill="#F7C28E"/>
<path d="M45.9376 10.1786C46.9651 10.7036 47.7344 11.6829 48.4769 12.5464C48.8229 12.9407 49.1797 13.3254 49.5376 13.7111C50.1162 14.3357 50.6894 14.9646 51.2572 15.5989C51.6022 15.9814 51.9504 16.3618 52.2987 16.7411C52.8468 17.3369 53.3907 17.9365 53.9304 18.54C54.2197 18.8593 54.5101 19.1775 54.8026 19.4946L55.7144 20.4911L55.9929 20.7932C57.3494 22.2975 57.3494 22.2975 57.389 23.1868C57.2712 24.0932 56.9069 24.5668 56.2501 25.1786L55.7894 25.6554C55.0737 26.3614 54.5079 26.7364 53.4901 26.7986C52.6779 26.7664 52.2237 26.2789 51.6965 25.7143L51.1779 25.2032C50.7494 24.7746 50.3465 24.3321 49.9522 23.8746C49.6297 23.505 49.2987 23.145 48.9676 22.785C48.5133 22.29 48.0601 21.795 47.6112 21.2946C47.1687 20.8007 46.7219 20.31 46.2719 19.8214C45.6205 19.111 44.9734 18.3967 44.3304 17.6786L43.7272 17.0089L43.4294 16.6757C43.2204 16.4449 43.0089 16.2163 42.7951 15.99C42.0472 15.1896 41.5919 14.6443 41.4504 13.5354C41.4869 12.7596 41.9004 12.2089 42.4329 11.6721C42.7008 11.4311 42.9762 11.205 43.259 10.9821L43.5515 10.7496C44.3765 10.1132 44.9079 9.95464 45.9376 10.1786Z" fill="#FF4D7E"/>
<path d="M15.6662 10.8054C16.3122 11.2254 16.8587 11.7869 17.4105 12.3215L17.7062 12.5979C18.1315 13.0576 18.2526 13.4229 18.2558 14.0454L18.2622 14.3797C18.1551 15.1586 17.7212 15.6761 17.193 16.2301C16.7355 16.7197 16.2972 17.2147 15.8783 17.7376C15.387 18.3395 14.8746 18.9238 14.3419 19.4894C13.9412 19.9222 13.5619 20.3658 13.1922 20.8265C12.7038 21.4258 12.1938 22.0072 11.6633 22.5697C11.1576 23.1161 10.6883 23.6872 10.2222 24.2669C9.75361 24.82 9.26913 25.3595 8.76939 25.8847C8.43617 26.2415 8.43617 26.2415 8.15867 26.6133C7.67438 27.1919 7.08403 27.4244 6.34474 27.5133C5.43831 27.3965 4.80831 26.8661 4.13438 26.2919L3.88796 26.0926C3.17331 25.4861 2.73296 24.8315 2.61938 23.8897C2.73724 22.9876 3.25153 22.3876 3.83331 21.7297L4.04974 21.4811C4.56188 20.8951 5.08367 20.3186 5.60653 19.7433C5.90653 19.4036 6.19367 19.0533 6.47867 18.6997C6.97153 18.089 7.4901 17.5136 8.02367 16.9394C8.42438 16.5065 8.80367 16.0629 9.17438 15.6022C9.66081 14.9979 10.173 14.4279 10.7012 13.8601C11.1147 13.4144 11.5047 12.9547 11.8862 12.4801C13.909 9.9815 13.909 9.9815 15.6662 10.8054Z" fill="#1AB7BA"/>
</g>
</g>
<defs>
<clipPath id="clip0_223_1096">
<rect width="60" height="45" fill="white" transform="translate(0 7.5)"/>
</clipPath>
</defs>
</svg>
