<svg width="60" height="60" viewBox="0 0 60 60" fill="none" xmlns="http://www.w3.org/2000/svg">
<g clip-path="url(#clip0_223_1097)">
<mask id="mask0_223_1097" style="mask-type:luminance" maskUnits="userSpaceOnUse" x="8" y="0" width="44" height="60">
<path d="M8 0H52V60H8V0Z" fill="white"/>
</mask>
<g mask="url(#mask0_223_1097)">
<path d="M12.7314 33.3613L13.3396 33.5145C17.605 34.6123 22.106 36.1953 25.4707 39.0957L25.8408 39.3855C27.6888 40.883 28.8211 43.0621 29.8383 45.1596V45.4787H30.1619L30.2887 45.0702C31.544 41.5762 34.0934 39.0345 37.2795 37.1809L37.5655 37.0149C41.0997 34.9915 46.579 32.4766 50.706 32.8723C51.5808 33.5911 51.5083 34.7004 51.6093 35.7447C51.8463 38.7239 51.7604 41.7196 51.353 44.6809L51.3026 45.0447C50.8134 48.443 49.7276 51.7085 47.3089 54.2553L47.0501 54.5285C45.9371 55.6877 44.8281 56.7894 43.4266 57.6064C43.336 57.6574 43.248 57.7111 43.1548 57.7647C40.5213 59.28 37.6263 60.1238 34.5593 59.5813C32.9481 59.1472 31.3654 58.1157 30.4051 56.7587C30.1619 56.3298 30.1619 56.3298 30.1619 56.0106H29.8383L29.7477 56.3298C29.1136 57.637 28.0524 58.4068 26.7648 59.0426L26.374 59.243C24.2231 60.1838 21.6284 59.7881 19.4893 59.0323C15.5034 57.494 11.9329 54.3689 10.1431 50.5047C8.03115 45.6128 7.53421 38.8596 8.64715 33.6715C9.29938 32.1332 11.48 33.0434 12.7314 33.3626V33.3613Z" fill="#020201"/>
<path d="M20.9412 0.638306H39.0588V24.5745C38.101 24.0628 37.1761 23.4932 36.2894 22.8689C35.2062 22.1041 34.1077 21.3605 32.9946 20.6387C32.618 20.3936 32.2466 20.1409 31.8778 19.883L31.3653 19.5281L30.9188 19.2128C30.3934 18.9421 30.1035 18.9383 29.5147 18.9894C29.0876 19.1809 29.0876 19.1809 28.6839 19.4694L28.2128 19.7834L27.7146 20.1268L27.1982 20.474C26.6741 20.8277 26.1526 21.1851 25.6323 21.5426L25.1535 21.8694C24.4599 22.3443 23.7688 22.8204 23.079 23.2992L22.7296 23.5417C22.5083 23.6987 22.287 23.857 22.067 24.0166C21.297 24.5745 21.297 24.5745 20.9412 24.5745V0.638306Z" fill="#FF4D7E"/>
<path d="M10.7501 35.266C15.7092 35.7 21.4848 38.109 24.9854 41.649L25.3051 41.9541C27.7548 44.4588 28.9325 48.2311 28.9286 51.6268C28.8885 53.3617 28.4213 54.7022 27.2501 56.0107C26.55 55.772 25.9767 55.4081 25.3801 54.983L25.0799 54.7711C24.0601 54.0332 23.1452 53.2047 22.2354 52.3405L21.8472 51.9945C20.0833 50.3694 18.2625 47.8149 18.1758 45.3511L18.1913 44.0426L16.0884 43.7234C15.8787 47.4473 17.7151 50.5213 20.1312 53.2417C21.4214 54.6613 22.9122 55.7847 24.4975 56.8673L24.8237 57.1277V57.4468C22.5589 58.0239 20.1532 57.1622 18.1913 56.0554C14.4953 53.7345 12.1297 50.5328 11.1254 46.3162C10.6518 43.92 10.5586 41.5698 10.5586 39.1354V38.7498C10.5586 38.3796 10.5586 38.0119 10.5612 37.6417V37.3085C10.5689 36.6115 10.6375 35.9515 10.7501 35.266ZM49.2501 35.266C49.3847 36.0792 49.4404 36.8707 49.4442 37.6954L49.4481 38.0694C49.4507 38.4677 49.452 38.8673 49.452 39.2656V39.6779C49.4494 41.8022 49.3705 43.8715 48.9266 45.9575L48.8425 46.3583C48.2407 49.1132 47.1472 51.2298 45.206 53.2979L44.8786 53.6605C42.8947 55.7541 39.8497 57.5068 36.9081 57.6205C36.2986 57.6294 35.7667 57.6128 35.1766 57.4468C35.3772 56.852 35.5778 56.7677 36.0954 56.4192C39.7578 53.8609 42.8598 50.5124 43.8135 46.0737C43.9354 45.2964 43.9684 44.508 43.9119 43.7234L41.8089 44.0426L41.8607 44.7702C41.8452 47.6451 40.036 50.049 38.0884 52.0213L37.7286 52.4068C36.5729 53.6068 35.2517 54.5834 33.8825 55.532L33.4412 55.8473C33.0737 56.0107 33.0737 56.0107 32.7255 55.9162C31.7808 55.2077 31.3124 53.94 31.1325 52.8192C30.7885 49.0409 31.9593 45.2801 34.3937 42.3434C37.6445 38.6796 44.2445 35.266 49.2501 35.266Z" fill="#1AB7BA"/>
</g>
</g>
<defs>
<clipPath id="clip0_223_1097">
<rect width="44" height="60" fill="white" transform="translate(8)"/>
</clipPath>
</defs>
</svg>
