<svg width="60" height="60" viewBox="0 0 60 60" fill="none" xmlns="http://www.w3.org/2000/svg">
<g clip-path="url(#clip0_223_1085)">
<mask id="mask0_223_1085" style="mask-type:luminance" maskUnits="userSpaceOnUse" x="0" y="0" width="60" height="60">
<path d="M0 0H60V60H0V0Z" fill="white"/>
</mask>
<g mask="url(#mask0_223_1085)">
<path d="M24.7117 0.650016L25.0957 0.647794C25.8049 0.647241 26.5141 0.64613 27.2233 0.64446H29.0545C29.8345 0.646683 30.6145 0.64446 31.3945 0.640016C31.9957 0.637794 32.5981 0.637794 33.1993 0.638905L34.0621 0.636683C34.4641 0.63446 34.8673 0.635572 35.2705 0.637794L35.6257 0.63446C36.6733 0.645572 37.4353 0.947794 38.2237 1.54113C38.9629 2.29335 39.2161 2.95557 39.2173 3.93224C39.1129 4.58779 38.8333 5.18557 38.5453 5.79557C38.2909 6.31557 38.2909 6.31557 38.3533 6.85779L38.5513 7.08335C39.2293 8.09002 39.3001 9.05557 39.1513 10.2089C38.9533 10.75 38.6137 11.1689 38.2513 11.6411L38.5009 11.9489C42.0565 16.4267 45.6145 21.7289 44.5321 27.3634C44.0269 29.6778 42.8497 31.69 40.9513 33.3856L41.4553 33.4478C43.3357 33.6967 44.8693 34.0845 46.2013 35.3389C46.4809 35.6734 46.7185 36.02 46.9513 36.38L47.2513 36.7711L47.4937 36.5578L48.6013 35.5911L48.9829 35.2567C52.3813 32.2945 52.3813 32.2945 54.6205 32.2789C55.9885 32.2778 57.0169 32.5834 58.0741 33.3634C59.0641 34.2556 59.4325 35.2189 59.4769 36.4456C59.4241 37.8789 58.8961 38.7656 57.7513 39.7656L57.5029 39.9867C55.7713 41.5222 55.7713 41.5222 54.9145 42.1622C54.2257 42.6789 53.5897 43.2378 52.9513 43.8022C52.2191 44.4578 51.4572 45.0843 50.6677 45.68C50.3005 45.9634 49.9801 46.2778 49.6513 46.5934C49.0518 47.1318 48.358 47.5721 47.5993 47.8956L47.3317 48.0156C45.4333 48.7978 43.4353 48.9578 41.3701 48.9556C41.1265 48.9556 40.8829 48.9589 40.6393 48.9611C40.0033 48.9656 39.3673 48.9678 38.7301 48.9689C37.9741 48.9709 37.2181 48.9746 36.4621 48.98C34.9861 48.9887 33.5101 48.9999 32.0341 49.0134C31.3249 49.0189 30.6145 49.0278 29.9053 49.04C29.6881 49.0434 29.4709 49.0467 29.2537 49.0478C27.9817 49.0589 26.9425 49.1534 25.8013 49.6611L25.8757 49.9278C26.1073 50.7767 26.2741 51.6 25.7893 52.4022C25.1641 53.2234 24.4285 53.9067 23.6281 54.6L23.2165 54.9589C22.9308 55.2077 22.6444 55.4559 22.3573 55.7034C21.9925 56.0189 21.6301 56.3367 21.2677 56.6545C20.9185 56.9611 20.5669 57.2656 20.2153 57.57L19.8253 57.9134C19.0141 58.6089 18.2713 59.1822 17.1157 59.3656L16.7257 59.3622L16.3369 59.3656C14.9545 59.1467 14.1325 58.3511 13.1929 57.5067L12.8017 57.1634C12.2737 56.6967 11.7553 56.2278 11.2681 55.7289C10.4845 54.9478 9.62411 54.2289 8.77571 53.5011L7.82771 52.6822C6.92912 51.9072 6.02952 51.1331 5.12891 50.36L3.47411 48.9322L2.84411 48.3911C2.55126 48.1398 2.25926 47.8875 1.96811 47.6345L1.70411 47.4122C0.950513 46.7534 0.536513 46.1445 0.516113 45.1934C0.560513 43.9856 1.16411 43.4134 2.14811 42.6067C2.48771 42.3345 2.83211 42.0678 3.17771 41.8011C3.64451 41.4378 4.10051 41.0656 4.55771 40.6934L5.12291 40.2356C5.62254 39.8303 6.12015 39.4229 6.61571 39.0134C6.80771 38.8578 6.99731 38.7022 7.18691 38.5445C8.21051 37.7067 9.02531 37.25 10.4449 37.2511C10.9453 37.3078 11.3065 37.49 11.7277 37.7245C12.0025 37.84 12.0025 37.84 12.2905 37.7356C12.6793 37.5067 12.9961 37.2422 13.3321 36.9578C14.6113 35.92 16.0801 35.1767 17.6353 34.4922L17.9389 34.3589C18.4549 34.1389 18.9301 33.9745 19.5013 33.9067L19.3189 33.7378C16.3957 30.9467 15.1189 27.7045 15.2749 23.96C15.4717 21.3489 16.9057 18.8611 18.3013 16.5889L18.4693 16.3134C19.4569 14.6956 20.5813 13.1634 21.7513 11.6411L21.5929 11.4267L21.3853 11.1445L21.1801 10.8645C20.6557 10.0845 20.7745 9.12779 20.8513 8.25557C21.0229 7.7389 21.2737 7.28668 21.6481 6.85779C21.8185 6.3689 21.5341 5.95779 21.3205 5.50446C20.8285 4.38002 20.5645 3.40002 21.1357 2.25002C21.9541 1.03891 23.1685 0.643349 24.7117 0.650016Z" fill="#010101"/>
<path d="M25.2577 12.0756L25.5985 12.0634C26.7781 12.0222 27.9589 12.0045 29.1397 11.9889C29.6989 11.9811 30.2557 11.9656 30.8149 11.9445C35.3029 11.7711 35.3029 11.7711 36.4357 12.4056C37.1005 12.9911 37.4701 13.6522 37.7917 14.4167C38.0653 15.0167 38.4697 15.5467 38.8597 16.0922C41.2933 19.7911 43.3201 23.4145 42.1477 27.7445C41.5321 29.5589 40.5085 30.9911 39.0001 32.3445L38.7205 32.6334C38.2741 33.05 37.9885 33.2411 37.3213 33.2911C36.7782 33.2609 36.2372 33.2053 35.7001 33.1245L35.2753 33.0645L34.4209 32.9356C31.0045 32.4711 27.5269 32.42 24.1117 32.8967L23.7517 32.9456C23.5141 32.9789 23.2765 33.0167 23.0401 33.0578C22.4041 33.1522 22.1473 33.1745 21.5725 32.8845L21.1501 32.5222L20.9221 32.3278C18.4789 30.1689 17.4901 27.5389 17.4841 24.5611C17.5645 20.7145 20.4049 17.0411 22.7065 13.8789L22.9825 13.4989L23.2441 13.1434L23.4781 12.8267C23.9965 12.1856 24.3601 12.0989 25.2577 12.0756Z" fill="#1AB7BA"/>
<path d="M56.2321 34.5656C56.9341 35.0656 57.2485 35.6767 57.3757 36.4456C57.1861 37.5934 56.3881 38.2867 55.4629 39.0567L55.1329 39.34C54.6193 39.7767 54.0972 40.2 53.5524 40.6067C52.8672 41.1223 52.2349 41.6789 51.6001 42.24C50.8685 42.8947 50.1074 43.5204 49.3188 44.1156C48.942 44.4067 48.6049 44.7267 48.2629 45.0467C47.4817 45.7489 46.6429 46.1823 45.6001 46.5356L45.3192 46.6356C44.3868 46.9367 43.5433 46.9856 42.5557 46.9867L42.0588 46.9923L40.9956 47.0011C40.434 47.0034 39.8712 47.01 39.3096 47.0156C37.914 47.0311 36.5172 47.0434 35.1216 47.0534C33.942 47.0623 32.7613 47.0734 31.5817 47.0867C31.0297 47.0934 30.4776 47.0956 29.9256 47.0978L28.9032 47.1111H28.4436C27.024 47.1334 25.7412 47.49 24.4872 48.0667L24.1153 48.2356L23.85 48.3589C22.5351 47.2329 21.2223 46.1048 19.9116 44.9745C19.302 44.4489 18.6936 43.9245 18.0828 43.4023C17.4936 42.8978 16.9068 42.3911 16.32 41.8845L15.6456 41.3067C15.33 41.0378 15.018 40.7667 14.706 40.4956L14.418 40.2534C14.1636 40.0289 14.1636 40.0289 13.8 39.6356C13.866 39.0745 14.2752 38.79 14.7372 38.4311L14.9808 38.24C18.1716 35.8134 22.8528 34.4223 27.0888 34.4011L27.4584 34.3978C27.852 34.3956 28.2469 34.3945 28.6405 34.3945H29.0485C31.4137 34.3945 33.7044 34.5334 36.03 34.9211L36.3312 34.9723L36.9193 35.0723C38.1865 35.2723 39.4801 35.3056 40.7641 35.35C42.2713 35.4178 43.4761 35.6867 44.5501 36.6411C44.9785 37.1789 45.3024 37.7856 45.2676 38.4523C44.964 39.1545 44.0772 39.7078 43.326 40.0389C42.78 40.19 42.2604 40.1989 41.694 40.2034L41.3317 40.2089L40.5565 40.22C40.1485 40.2256 39.7405 40.2311 39.3313 40.2389C38.1697 40.2578 37.0092 40.2745 35.8476 40.29L33.7153 40.3234C33.0664 40.3297 32.4176 40.3394 31.7689 40.3523L31.4281 40.3545C30.9913 40.3645 30.6756 40.3734 30.306 40.5878C30.042 40.9611 30.0972 41.2945 30.15 41.7189C30.6504 42.0078 30.8064 42.0111 31.3909 42.0111H31.8817C32.0581 42.0111 32.2333 42.0111 32.4157 42.0089H32.9712L34.1449 42.0056C34.7305 42.0034 35.3149 42.0034 35.8993 42.0034C37.7257 42.0011 39.5508 41.9856 41.376 41.9367L41.8297 41.9278C43.9957 41.8589 45.384 41.0611 46.8528 39.7211C47.1648 39.4489 47.4805 39.1989 47.8165 38.9467C48.4753 38.4411 49.1119 37.9111 49.7245 37.3578C50.5186 36.6529 51.3446 35.9794 52.2001 35.3389L52.5528 35.0589C53.6544 34.19 54.8581 33.8034 56.2321 34.5656Z" fill="#F3BE8B"/>
<path d="M10.5001 39.2445C10.7953 39.4211 10.7953 39.4211 11.0833 39.6722L11.4193 39.9589L11.7793 40.2789L12.1633 40.6122C12.5113 40.9122 12.8569 41.2156 13.2013 41.5189C13.5625 41.8367 13.9261 42.1522 14.2897 42.4678L16.1161 44.0633C16.9729 44.8145 17.8321 45.5633 18.6913 46.3111L20.4769 47.8678L20.9089 48.2456L22.3297 49.4889L22.6933 49.8056L23.0233 50.0956L23.3113 50.3478C23.8537 50.8589 23.8537 50.8589 23.8417 51.2667C23.6533 51.7289 23.3269 52.0245 22.9393 52.3689L22.6993 52.5889C22.4353 52.83 22.1677 53.0678 21.9001 53.3078L21.3313 53.8233C20.8333 54.2722 20.3317 54.7167 19.8265 55.16C19.6189 55.3433 19.4125 55.5267 19.2061 55.7122C18.903 55.9832 18.5982 56.2525 18.2917 56.52L18.0157 56.7722C17.3701 57.3289 17.3701 57.3289 16.7533 57.4056C15.8173 57.2633 15.1921 56.48 14.5933 55.8833C13.6501 54.97 12.6397 54.1145 11.6341 53.2522L10.5481 52.3178C9.5219 51.4315 8.4943 50.5467 7.46527 49.6633C6.83332 49.1212 6.20252 48.5778 5.57287 48.0333L4.85287 47.4145C4.51687 47.1278 4.18327 46.84 3.85087 46.5511L3.54847 46.2956C3.16207 45.9567 2.88727 45.7111 2.69287 45.2622C2.70007 44.9733 2.70007 44.9733 3.00607 44.66L3.45007 44.3233C3.76595 44.0466 4.08195 43.7699 4.39807 43.4933C4.47607 43.4222 4.55647 43.3522 4.63807 43.28C5.16727 42.8178 5.71807 42.3856 6.28567 41.9578C6.95767 41.4445 7.60087 40.9022 8.24887 40.3656L8.57527 40.0967L8.86687 39.8567C9.74287 39.1733 9.74287 39.1722 10.5001 39.2445Z" fill="#CFD1D2"/>
<path d="M30.4501 15.9378C30.7753 16.1267 30.7753 16.1267 31.0501 16.4589C31.1233 16.8622 31.1065 17.2555 31.0873 17.6622L31.0789 17.9944C31.0717 18.2633 31.0621 18.5333 31.0501 18.8022L31.4605 18.7889L31.9969 18.7778L32.5297 18.7644C33.0001 18.8022 33.0001 18.8022 33.2833 18.9711C33.5713 19.3555 33.5221 19.6611 33.4501 20.1044C33.1189 20.4467 32.8525 20.6055 32.3389 20.67C31.9057 20.6867 31.4749 20.6922 31.0405 20.69C29.9617 20.6511 29.9617 20.6511 29.0029 20.9955C28.7233 21.3822 28.7149 21.61 28.8001 22.0578C29.1181 22.4089 29.3113 22.5589 29.8153 22.6678L30.2713 22.7089C31.4893 22.8589 32.1733 23.2144 32.9605 24.0389C33.5629 24.7767 33.5533 25.4689 33.4501 26.3544C33.1897 27.17 32.5909 27.7044 31.8001 28.1767C31.6021 28.2667 31.4029 28.3544 31.2001 28.4378L31.1941 28.9267L31.1725 29.5689L31.1689 29.8911C31.1449 30.4622 31.1089 30.7144 30.6973 31.1822C30.3001 31.4322 30.3001 31.4322 29.8309 31.44C29.3185 31.2755 29.2069 31.1955 28.9501 30.7811C28.9068 30.4028 28.8975 30.0219 28.9225 29.6422L28.9285 29.3289C28.9333 29.0755 28.9405 28.8211 28.9501 28.5678L28.6153 28.5855C27.4273 28.6244 27.4273 28.6244 26.8225 28.3555C26.5501 28.0467 26.5501 28.0467 26.4661 27.6555C26.5741 27.1544 26.6653 27.0378 27.1501 26.7444C27.8425 26.6544 28.5421 26.6789 29.2405 26.6811C30.1213 26.6722 30.1213 26.6722 30.9229 26.3789C31.2445 26.0955 31.2445 26.0955 31.2949 25.6378C31.2409 25.1822 31.2409 25.1822 30.9373 24.8822C30.4477 24.66 30.1285 24.6089 29.5873 24.5478C28.5565 24.4222 27.7861 24.0955 27.0889 23.4133C26.4625 22.6467 26.4481 21.7933 26.5501 20.8855C26.8081 20.0978 27.3937 19.4833 28.2001 19.0633C28.6081 18.9767 28.6081 18.9767 28.9501 18.9322L28.9405 18.7133C28.9288 18.3849 28.9196 18.0563 28.9129 17.7278L28.8973 17.3833C28.8829 16.5411 28.8829 16.5411 29.2249 16.1222C29.6689 15.87 29.9281 15.8622 30.4501 15.9378Z" fill="#010101"/>
<path d="M25.1892 2.44227L25.5408 2.43893C25.9212 2.4356 26.3004 2.43782 26.6808 2.43893L27.4776 2.43782C28.0344 2.43671 28.59 2.43782 29.1456 2.44116C29.8572 2.44449 30.5676 2.44227 31.2792 2.43893C31.8276 2.43671 32.3748 2.43671 32.9232 2.43893L33.7104 2.43782C34.0776 2.4356 34.4436 2.43782 34.8108 2.44227L35.136 2.43782C35.6856 2.44782 36.0816 2.5256 36.5244 2.80004C36.9 3.17782 36.9 3.17782 36.9 4.08893L36 6.17227H24C23.1 4.08893 23.1 4.08893 23.1 3.17671C23.724 2.55116 24.2436 2.43004 25.1892 2.44227ZM25.0032 7.9756H25.3644C26.0332 7.97256 26.702 7.97107 27.3708 7.97116H29.0952C29.832 7.97116 30.5688 7.96893 31.3056 7.96671C32.1428 7.96393 32.98 7.96282 33.8172 7.96338H34.9572L35.298 7.96116C35.8512 7.96338 36.2892 7.97227 36.75 8.2556C36.942 8.59004 36.936 8.85004 36.9468 9.22338L36.9636 9.6056C36.9 9.94782 36.9 9.94782 36.6732 10.1612C36.1476 10.4112 35.6532 10.3934 35.0688 10.3889L34.6932 10.3912C34.2852 10.3934 33.8772 10.3912 33.4692 10.3912H32.6172L30.8316 10.39C30.0684 10.3878 29.3064 10.3889 28.5432 10.39C27.9564 10.3923 27.3708 10.3923 26.784 10.39C26.5032 10.39 26.2224 10.39 25.9404 10.3923C25.548 10.3923 25.1544 10.3923 24.762 10.3889L24.408 10.3912C23.6256 10.3834 23.6256 10.3834 23.2536 10.1612C23.0292 9.84893 23.04 9.59671 23.0436 9.23227L23.04 8.85338C23.1084 8.46782 23.1972 8.35782 23.55 8.1256C24.012 7.9256 24.498 7.9756 25.0032 7.9756Z" fill="#1AB7BA"/>
</g>
</g>
<defs>
<clipPath id="clip0_223_1085">
<rect width="60" height="60" fill="white"/>
</clipPath>
</defs>
</svg>
