<svg xmlns="http://www.w3.org/2000/svg" width="230" height="68" fill="none"><g clip-path="url(#a)"><path fill="#F5F7FA" d="M29.5 0 0 17.126.126 51 29.5 68 59 50.874V17L29.5 0Z"/><path fill="#1AB7BA" d="M50.427 26.822v-4.91L29.5 9.821 8.573 21.912v24.177L29.5 58.178l28.996-16.622v-9.949L29.5 48.23l-12.355-7.052V26.822L29.5 19.644l8.068 4.786-12.354 7.052v4.91l4.286 2.52 20.927-12.09Z"/><path fill="#2A2F3C" d="M183.67 32V18h6.06c1.253 0 2.333.207 3.24.62.907.4 1.607.98 2.1 1.74.493.76.74 1.667.74 2.72 0 1.04-.247 1.94-.74 2.7-.493.747-1.193 1.32-2.1 1.72-.907.4-1.987.6-3.24.6h-4.26l1.44-1.42V32h-3.24Zm8.9 0-3.5-5.08h3.46l3.54 5.08h-3.5Zm-5.66-4.96-1.44-1.52h4.08c1 0 1.747-.213 2.24-.64.493-.44.74-1.04.74-1.8 0-.773-.247-1.373-.74-1.8-.493-.427-1.24-.64-2.24-.64h-4.08l1.44-1.54v7.94Zm-13.115 5.2c-1.107 0-2.133-.18-3.08-.54a7.397 7.397 0 0 1-2.44-1.52 7.094 7.094 0 0 1-1.6-2.3c-.373-.88-.56-1.84-.56-2.88 0-1.04.187-2 .56-2.88.379-.868.93-1.65 1.62-2.3a7.397 7.397 0 0 1 2.44-1.52c.933-.36 1.947-.54 3.04-.54 1.107 0 2.12.18 3.04.54.9.34 1.723.857 2.42 1.52a7.004 7.004 0 0 1 1.62 2.3c.387.867.58 1.827.58 2.88 0 1.04-.193 2.007-.58 2.9a7.004 7.004 0 0 1-1.62 2.3 7.299 7.299 0 0 1-2.42 1.5c-.92.36-1.927.54-3.02.54Zm-.02-2.76c.627 0 1.2-.107 1.72-.32.533-.213 1-.52 1.4-.92.4-.4.707-.873.92-1.42.227-.547.34-1.153.34-1.82s-.113-1.273-.34-1.82a4.106 4.106 0 0 0-.92-1.42 3.9 3.9 0 0 0-1.38-.92 4.603 4.603 0 0 0-1.74-.32c-.626 0-1.206.107-1.74.32-.52.213-.98.52-1.38.92-.4.4-.713.873-.94 1.42a5.003 5.003 0 0 0-.32 1.82c0 .653.107 1.26.32 1.82.227.547.533 1.02.92 1.42.4.4.867.707 1.4.92.534.213 1.114.32 1.74.32ZM156.923 32l-6.04-14h3.5l5.28 12.4h-2.06l5.36-12.4h3.22l-6.06 14h-3.2Zm-20.391 0 6.24-14h3.2l6.26 14h-3.4l-5.12-12.36h1.28L139.852 32h-3.32Zm3.12-3 .86-2.46h7.2l.88 2.46h-8.94Zm-11.518-5.36h6.74v2.52h-6.74v-2.52Zm.24 5.76h7.62V32h-10.84V18h10.58v2.6h-7.36v8.8ZM108.83 32V18h6.36c1.52 0 2.86.293 4.02.88 1.16.573 2.067 1.38 2.72 2.42s.98 2.273.98 3.7c0 1.413-.327 2.647-.98 3.7-.653 1.04-1.56 1.853-2.72 2.44-1.16.573-2.5.86-4.02.86h-6.36Zm3.24-2.66h2.96c.933 0 1.74-.173 2.42-.52a3.798 3.798 0 0 0 1.6-1.52c.387-.653.58-1.42.58-2.3 0-.893-.193-1.66-.58-2.3a3.696 3.696 0 0 0-1.6-1.5c-.68-.36-1.487-.54-2.42-.54h-2.96v8.68ZM92.878 32V18h2.68l8.26 10.08h-1.3V18h3.2v14h-2.66l-8.28-10.08h1.3V32h-3.2ZM82.64 23.64h6.74v2.52h-6.74v-2.52Zm.24 5.76h7.62V32H79.66V18h10.58v2.6h-7.36v8.8Z"/><path fill="#404759" d="M221.826 52v-8.4h.984l5.556 6.9h-.516v-6.9h1.2V52h-.984l-5.556-6.9h.516V52h-1.2Zm-6.766.096c-.64 0-1.236-.108-1.788-.324a4.291 4.291 0 0 1-1.416-.9 4.291 4.291 0 0 1-.936-1.368 4.297 4.297 0 0 1-.336-1.704c0-.616.112-1.184.336-1.704.224-.52.536-.972.936-1.356.4-.392.872-.696 1.416-.912a4.8 4.8 0 0 1 1.788-.324c.64 0 1.228.108 1.764.324.529.2 1.011.506 1.416.9.408.384.72.836.936 1.356.224.52.336 1.092.336 1.716 0 .624-.112 1.196-.336 1.716-.216.52-.528.976-.936 1.368-.4.384-.872.684-1.416.9a4.8 4.8 0 0 1-1.764.312Zm0-1.068c.464 0 .892-.08 1.284-.24a3.023 3.023 0 0 0 1.716-1.704c.168-.392.252-.82.252-1.284 0-.464-.084-.892-.252-1.284a2.996 2.996 0 0 0-.684-1.02 2.948 2.948 0 0 0-1.032-.684c-.392-.16-.82-.24-1.284-.24-.472 0-.908.08-1.308.24-.392.16-.736.388-1.032.684a3.1 3.1 0 0 0-.696 1.02c-.16.392-.24.82-.24 1.284 0 .464.08.892.24 1.284.168.392.4.736.696 1.032.296.288.64.512 1.032.672.4.16.836.24 1.308.24Zm-7.987.972v-8.4h1.2V52h-1.2Zm-5.855 0v-7.356h-2.88V43.6h6.948v1.044h-2.88V52h-1.188Zm-11.787 0 3.804-8.4h1.188l3.816 8.4h-1.26l-3.396-7.728h.48L190.667 52h-1.236Zm1.62-2.1.324-.96h4.728l.348.96h-5.4ZM180.426 52v-8.4h3.54c.896 0 1.684.176 2.364.528.688.352 1.22.844 1.596 1.476.384.632.576 1.364.576 2.196 0 .832-.192 1.564-.576 2.196a3.848 3.848 0 0 1-1.596 1.476c-.68.352-1.468.528-2.364.528h-3.54Zm1.2-1.044h2.268c.696 0 1.296-.132 1.8-.396a2.9 2.9 0 0 0 1.188-1.104c.28-.48.42-1.032.42-1.656 0-.632-.14-1.184-.42-1.656a2.9 2.9 0 0 0-1.188-1.104c-.504-.264-1.104-.396-1.8-.396h-2.268v6.312ZM170.208 52v-8.4h.984l5.556 6.9h-.516v-6.9h1.2V52h-.984l-5.556-6.9h.516V52h-1.2Zm-6.492.096c-1.104 0-1.972-.316-2.604-.948-.632-.632-.948-1.556-.948-2.772V43.6h1.2v4.728c0 .936.204 1.62.612 2.052.416.432 1 .648 1.752.648.76 0 1.344-.216 1.752-.648.416-.432.624-1.116.624-2.052V43.6h1.164v4.776c0 1.216-.316 2.14-.948 2.772-.624.632-1.492.948-2.604.948Zm-10.246 0c-.64 0-1.236-.108-1.788-.324a4.291 4.291 0 0 1-1.416-.9 4.291 4.291 0 0 1-.936-1.368 4.297 4.297 0 0 1-.336-1.704c0-.616.112-1.184.336-1.704.224-.52.536-.972.936-1.356.4-.392.872-.696 1.416-.912a4.8 4.8 0 0 1 1.788-.324c.64 0 1.228.108 1.764.324.529.2 1.011.506 1.416.9.408.384.72.836.936 1.356.224.52.336 1.092.336 1.716 0 .624-.112 1.196-.336 1.716-.216.52-.528.976-.936 1.368-.4.384-.872.684-1.416.9a4.8 4.8 0 0 1-1.764.312Zm0-1.068c.464 0 .892-.08 1.284-.24a3.023 3.023 0 0 0 1.716-1.704c.168-.392.252-.82.252-1.284 0-.464-.084-.892-.252-1.284a2.996 2.996 0 0 0-.684-1.02 2.948 2.948 0 0 0-1.032-.684c-.392-.16-.82-.24-1.284-.24-.472 0-.908.08-1.308.24-.392.16-.736.388-1.032.684a3.1 3.1 0 0 0-.696 1.02c-.16.392-.24.82-.24 1.284 0 .464.08.892.24 1.284.168.392.4.736.696 1.032.296.288.64.512 1.032.672.4.16.836.24 1.308.24Zm-10.716-3.456h4.332v1.032h-4.332v-1.032Zm.12 4.428h-1.2v-8.4h5.928v1.044h-4.728V52Zm-11.124 0v-3.216l.276.744-3.612-5.928h1.284l3.036 5.004h-.696l3.048-5.004h1.188l-3.6 5.928.264-.744V52h-1.188Zm-7.789 0v-7.356h-2.88V43.6h6.948v1.044h-2.88V52h-1.188Zm-5.863 0v-8.4h1.2V52h-1.2Zm-9.199 0v-8.4h3.276c.736 0 1.364.116 1.884.348.52.232.92.568 1.2 1.008.28.44.42.964.42 1.572 0 .608-.14 1.132-.42 1.572-.28.432-.68.764-1.2.996-.52.232-1.148.348-1.884.348h-2.616l.54-.552V52h-1.2Zm5.616 0-2.136-3.048h1.284l2.16 3.048h-1.308Zm-4.416-2.988-.54-.588h2.58c.768 0 1.348-.164 1.74-.492.4-.336.6-.804.6-1.404 0-.6-.2-1.064-.6-1.392-.392-.328-.972-.492-1.74-.492h-2.58l.54-.6v4.968ZM98.358 52l3.804-8.4h1.188l3.816 8.4h-1.26l-3.396-7.728h.48L99.594 52h-1.236Zm1.62-2.1.324-.96h4.728l.348.96h-5.4Zm-4.542-6.3h1.2V52h-1.2v-8.4ZM90.612 52h-1.2v-8.4h1.2V52Zm4.932-3.744h-5.052v-1.044h5.052v1.044Zm-11.528 3.84c-.64 0-1.232-.104-1.776-.312a4.4 4.4 0 0 1-1.404-.9 4.398 4.398 0 0 1-.924-1.368 4.3 4.3 0 0 1-.336-1.716c0-.624.112-1.196.336-1.716.224-.52.536-.972.936-1.356.4-.392.868-.692 1.404-.9a4.8 4.8 0 0 1 1.776-.324 4.7 4.7 0 0 1 1.788.336c.552.216 1.02.54 1.404.972l-.78.756a3.05 3.05 0 0 0-1.08-.744 3.3 3.3 0 0 0-1.284-.252c-.472 0-.912.08-1.32.24-.4.16-.748.384-1.044.672a3.1 3.1 0 0 0-.696 1.032c-.16.392-.24.82-.24 1.284 0 .464.08.896.24 1.296a3.12 3.12 0 0 0 1.74 1.692c.408.16.848.24 1.32.24.456 0 .884-.08 1.284-.24.4-.168.76-.424 1.08-.768l.78.756c-.384.432-.852.76-1.404.984a4.7 4.7 0 0 1-1.8.336Z"/></g><defs><clipPath id="a"><path fill="#fff" d="M0 0h230v68H0z"/></clipPath></defs></svg>