<svg width="230" height="68" viewBox="0 0 230 68" fill="none" xmlns="http://www.w3.org/2000/svg">
<g clip-path="url(#clip0_12_10)">
<mask id="mask0_12_10" style="mask-type:luminance" maskUnits="userSpaceOnUse" x="0" y="0" width="230" height="68">
<path d="M0 0H230V68H0V0Z" fill="white"/>
</mask>
<g mask="url(#mask0_12_10)">
<path d="M29.5 0L0 17.126L0.126 51L29.5 68L59 50.874V17L29.5 0Z" fill="#F5F7FA"/>
<path d="M50.427 26.822V21.912L29.5 9.821L8.573 21.912V46.089L29.5 58.178L58.496 41.556V31.607L29.5 48.23L17.145 41.178V26.822L29.5 19.644L37.568 24.43L25.214 31.482V36.392L29.5 38.912L50.427 26.822Z" fill="#1AB7BA"/>
<path d="M183.67 32V18H189.73C190.983 18 192.063 18.207 192.97 18.62C193.877 19.02 194.577 19.6 195.07 20.36C195.563 21.12 195.81 22.027 195.81 23.08C195.81 24.12 195.563 25.02 195.07 25.78C194.577 26.527 193.877 27.1 192.97 27.5C192.063 27.9 190.983 28.1 189.73 28.1H185.47L186.91 26.68V32H183.67ZM192.57 32L189.07 26.92H192.53L196.07 32H192.57ZM186.91 27.04L185.47 25.52H189.55C190.55 25.52 191.297 25.307 191.79 24.88C192.283 24.44 192.53 23.84 192.53 23.08C192.53 22.307 192.283 21.707 191.79 21.28C191.297 20.853 190.55 20.64 189.55 20.64H185.47L186.91 19.1V27.04ZM173.795 32.24C172.688 32.24 171.662 32.06 170.715 31.7C169.81 31.3578 168.981 30.8414 168.275 30.18C167.594 29.5273 167.05 28.7454 166.675 27.88C166.302 27 166.115 26.04 166.115 25C166.115 23.96 166.302 23 166.675 22.12C167.054 21.252 167.605 20.47 168.295 19.82C169.001 19.1586 169.83 18.6422 170.735 18.3C171.668 17.94 172.682 17.76 173.775 17.76C174.882 17.76 175.895 17.94 176.815 18.3C177.715 18.64 178.538 19.157 179.235 19.82C179.925 20.4692 180.476 21.2517 180.855 22.12C181.242 22.987 181.435 23.947 181.435 25C181.435 26.04 181.242 27.007 180.855 27.9C180.476 28.7683 179.925 29.5508 179.235 30.2C178.535 30.854 177.712 31.3637 176.815 31.7C175.895 32.06 174.888 32.24 173.795 32.24ZM173.775 29.48C174.402 29.48 174.975 29.373 175.495 29.16C176.028 28.947 176.495 28.64 176.895 28.24C177.295 27.84 177.602 27.367 177.815 26.82C178.042 26.273 178.155 25.667 178.155 25C178.155 24.333 178.042 23.727 177.815 23.18C177.61 22.6479 177.297 22.1643 176.895 21.76C176.506 21.3579 176.036 21.0442 175.515 20.84C174.961 20.6218 174.37 20.5132 173.775 20.52C173.149 20.52 172.569 20.627 172.035 20.84C171.515 21.053 171.055 21.36 170.655 21.76C170.255 22.16 169.942 22.633 169.715 23.18C169.496 23.7615 169.388 24.3787 169.395 25C169.395 25.653 169.502 26.26 169.715 26.82C169.942 27.367 170.248 27.84 170.635 28.24C171.035 28.64 171.502 28.947 172.035 29.16C172.569 29.373 173.149 29.48 173.775 29.48ZM156.923 32L150.883 18H154.383L159.663 30.4H157.603L162.963 18H166.183L160.123 32H156.923ZM136.532 32L142.772 18H145.972L152.232 32H148.832L143.712 19.64H144.992L139.852 32H136.532ZM139.652 29L140.512 26.54H147.712L148.592 29H139.652ZM128.134 23.64H134.874V26.16H128.134V23.64ZM128.374 29.4H135.994V32H125.154V18H135.734V20.6H128.374V29.4ZM108.83 32V18H115.19C116.71 18 118.05 18.293 119.21 18.88C120.37 19.453 121.277 20.26 121.93 21.3C122.583 22.34 122.91 23.573 122.91 25C122.91 26.413 122.583 27.647 121.93 28.7C121.277 29.74 120.37 30.553 119.21 31.14C118.05 31.713 116.71 32 115.19 32H108.83ZM112.07 29.34H115.03C115.963 29.34 116.77 29.167 117.45 28.82C118.122 28.4829 118.679 27.9539 119.05 27.3C119.437 26.647 119.63 25.88 119.63 25C119.63 24.107 119.437 23.34 119.05 22.7C118.681 22.0496 118.123 21.5266 117.45 21.2C116.77 20.84 115.963 20.66 115.03 20.66H112.07V29.34ZM92.878 32V18H95.558L103.818 28.08H102.518V18H105.718V32H103.058L94.778 21.92H96.078V32H92.878ZM82.64 23.64H89.38V26.16H82.64V23.64ZM82.88 29.4H90.5V32H79.66V18H90.24V20.6H82.88V29.4Z" fill="white"/>
<path d="M221.826 52V43.6H222.81L228.366 50.5H227.85V43.6H229.05V52H228.066L222.51 45.1H223.026V52H221.826ZM215.06 52.096C214.42 52.096 213.824 51.988 213.272 51.772C212.745 51.5681 212.264 51.2623 211.856 50.872C211.458 50.4812 211.14 50.0165 210.92 49.504C210.693 48.9648 210.579 48.385 210.584 47.8C210.584 47.184 210.696 46.616 210.92 46.096C211.144 45.576 211.456 45.124 211.856 44.74C212.256 44.348 212.728 44.044 213.272 43.828C213.842 43.6071 214.449 43.4972 215.06 43.504C215.7 43.504 216.288 43.612 216.824 43.828C217.353 44.028 217.835 44.334 218.24 44.728C218.648 45.112 218.96 45.564 219.176 46.084C219.4 46.604 219.512 47.176 219.512 47.8C219.512 48.424 219.4 48.996 219.176 49.516C218.96 50.036 218.648 50.492 218.24 50.884C217.84 51.268 217.368 51.568 216.824 51.784C216.261 51.9978 215.662 52.1036 215.06 52.096ZM215.06 51.028C215.524 51.028 215.952 50.948 216.344 50.788C216.732 50.6374 217.085 50.4083 217.38 50.1151C217.675 49.8219 217.907 49.4708 218.06 49.084C218.228 48.692 218.312 48.264 218.312 47.8C218.312 47.336 218.228 46.908 218.06 46.516C217.905 46.1324 217.672 45.7851 217.376 45.496C217.084 45.1975 216.733 44.9644 216.344 44.812C215.952 44.652 215.524 44.572 215.06 44.572C214.588 44.572 214.152 44.652 213.752 44.812C213.36 44.972 213.016 45.2 212.72 45.496C212.422 45.7859 212.185 46.1328 212.024 46.516C211.864 46.908 211.784 47.336 211.784 47.8C211.784 48.264 211.864 48.692 212.024 49.084C212.192 49.476 212.424 49.82 212.72 50.116C213.016 50.404 213.36 50.628 213.752 50.788C214.152 50.948 214.588 51.028 215.06 51.028ZM207.073 52V43.6H208.273V52H207.073ZM201.218 52V44.644H198.338V43.6H205.286V44.644H202.406V52H201.218ZM189.431 52L193.235 43.6H194.423L198.239 52H196.979L193.583 44.272H194.063L190.667 52H189.431ZM191.051 49.9L191.375 48.94H196.103L196.451 49.9H191.051ZM180.426 52V43.6H183.966C184.862 43.6 185.65 43.776 186.33 44.128C187.018 44.48 187.55 44.972 187.926 45.604C188.31 46.236 188.502 46.968 188.502 47.8C188.502 48.632 188.31 49.364 187.926 49.996C187.547 50.6312 186.993 51.1436 186.33 51.472C185.65 51.824 184.862 52 183.966 52H180.426ZM181.626 50.956H183.894C184.59 50.956 185.19 50.824 185.694 50.56C186.187 50.3125 186.599 49.9295 186.882 49.456C187.162 48.976 187.302 48.424 187.302 47.8C187.302 47.168 187.162 46.616 186.882 46.144C186.599 45.6705 186.187 45.2875 185.694 45.04C185.19 44.776 184.59 44.644 183.894 44.644H181.626V50.956ZM170.208 52V43.6H171.192L176.748 50.5H176.232V43.6H177.432V52H176.448L170.892 45.1H171.408V52H170.208ZM163.716 52.096C162.612 52.096 161.744 51.78 161.112 51.148C160.48 50.516 160.164 49.592 160.164 48.376V43.6H161.364V48.328C161.364 49.264 161.568 49.948 161.976 50.38C162.392 50.812 162.976 51.028 163.728 51.028C164.488 51.028 165.072 50.812 165.48 50.38C165.896 49.948 166.104 49.264 166.104 48.328V43.6H167.268V48.376C167.268 49.592 166.952 50.516 166.32 51.148C165.696 51.78 164.828 52.096 163.716 52.096ZM153.47 52.096C152.83 52.096 152.234 51.988 151.682 51.772C151.155 51.5681 150.674 51.2623 150.266 50.872C149.868 50.4812 149.55 50.0165 149.33 49.504C149.103 48.9648 148.989 48.385 148.994 47.8C148.994 47.184 149.106 46.616 149.33 46.096C149.554 45.576 149.866 45.124 150.266 44.74C150.666 44.348 151.138 44.044 151.682 43.828C152.252 43.6071 152.859 43.4972 153.47 43.504C154.11 43.504 154.698 43.612 155.234 43.828C155.763 44.028 156.245 44.334 156.65 44.728C157.058 45.112 157.37 45.564 157.586 46.084C157.81 46.604 157.922 47.176 157.922 47.8C157.922 48.424 157.81 48.996 157.586 49.516C157.37 50.036 157.058 50.492 156.65 50.884C156.25 51.268 155.778 51.568 155.234 51.784C154.671 51.9978 154.072 52.1036 153.47 52.096ZM153.47 51.028C153.934 51.028 154.362 50.948 154.754 50.788C155.142 50.6374 155.495 50.4083 155.79 50.1151C156.085 49.8219 156.317 49.4708 156.47 49.084C156.638 48.692 156.722 48.264 156.722 47.8C156.722 47.336 156.638 46.908 156.47 46.516C156.315 46.1324 156.082 45.7851 155.786 45.496C155.494 45.1975 155.143 44.9644 154.754 44.812C154.362 44.652 153.934 44.572 153.47 44.572C152.998 44.572 152.562 44.652 152.162 44.812C151.77 44.972 151.426 45.2 151.13 45.496C150.832 45.7859 150.595 46.1328 150.434 46.516C150.274 46.908 150.194 47.336 150.194 47.8C150.194 48.264 150.274 48.692 150.434 49.084C150.602 49.476 150.834 49.82 151.13 50.116C151.426 50.404 151.77 50.628 152.162 50.788C152.562 50.948 152.998 51.028 153.47 51.028ZM142.754 47.572H147.086V48.604H142.754V47.572ZM142.874 52H141.674V43.6H147.602V44.644H142.874V52ZM131.75 52V48.784L132.026 49.528L128.414 43.6H129.698L132.734 48.604H132.038L135.086 43.6H136.274L132.674 49.528L132.938 48.784V52H131.75ZM123.961 52V44.644H121.081V43.6H128.029V44.644H125.149V52H123.961ZM118.098 52V43.6H119.298V52H118.098ZM108.899 52V43.6H112.175C112.911 43.6 113.539 43.716 114.059 43.948C114.579 44.18 114.979 44.516 115.259 44.956C115.539 45.396 115.679 45.92 115.679 46.528C115.679 47.136 115.539 47.66 115.259 48.1C114.979 48.532 114.579 48.864 114.059 49.096C113.539 49.328 112.911 49.444 112.175 49.444H109.559L110.099 48.892V52H108.899ZM114.515 52L112.379 48.952H113.663L115.823 52H114.515ZM110.099 49.012L109.559 48.424H112.139C112.907 48.424 113.487 48.26 113.879 47.932C114.279 47.596 114.479 47.128 114.479 46.528C114.479 45.928 114.279 45.464 113.879 45.136C113.487 44.808 112.907 44.644 112.139 44.644H109.559L110.099 44.044V49.012ZM98.358 52L102.162 43.6H103.35L107.166 52H105.906L102.51 44.272H102.99L99.594 52H98.358ZM99.978 49.9L100.302 48.94H105.03L105.378 49.9H99.978ZM95.436 43.6H96.636V52H95.436V43.6ZM90.612 52H89.412V43.6H90.612V52ZM95.544 48.256H90.492V47.212H95.544V48.256ZM84.016 52.096C83.376 52.096 82.784 51.992 82.24 51.784C81.7189 51.5763 81.2423 51.2708 80.836 50.884C80.4444 50.4904 80.1309 50.0262 79.912 49.516C79.6837 48.9731 79.5693 48.389 79.576 47.8C79.576 47.176 79.688 46.604 79.912 46.084C80.136 45.564 80.448 45.112 80.848 44.728C81.248 44.336 81.716 44.036 82.252 43.828C82.8182 43.6086 83.4208 43.4987 84.028 43.504C84.6402 43.4985 85.2476 43.6126 85.816 43.84C86.368 44.056 86.836 44.38 87.22 44.812L86.44 45.568C86.1382 45.2446 85.7697 44.9908 85.36 44.824C84.9531 44.6551 84.5165 44.5695 84.076 44.572C83.604 44.572 83.164 44.652 82.756 44.812C82.356 44.972 82.008 45.196 81.712 45.484C81.4126 45.7774 81.1758 46.1285 81.016 46.516C80.856 46.908 80.776 47.336 80.776 47.8C80.776 48.264 80.856 48.696 81.016 49.096C81.1783 49.48 81.4159 49.8275 81.7147 50.1181C82.0136 50.4087 82.3676 50.6365 82.756 50.788C83.164 50.948 83.604 51.028 84.076 51.028C84.532 51.028 84.96 50.948 85.36 50.788C85.76 50.62 86.12 50.364 86.44 50.02L87.22 50.776C86.836 51.208 86.368 51.536 85.816 51.76C85.2438 51.9889 84.6322 52.1031 84.016 52.096Z" fill="#B3B3B3"/>
</g>
</g>
<defs>
<clipPath id="clip0_12_10">
<rect width="230" height="68" fill="white"/>
</clipPath>
</defs>
</svg>
